<svg width="50" height="50" viewBox="0 0 50 50" fill="none" xmlns="http://www.w3.org/2000/svg">
<line x1="12.7029" y1="35.6454" x2="23.3121" y2="7.55869" stroke="#CCCCCC" stroke-linecap="round"/>
<line x1="26.1315" y1="36.8088" x2="35.4521" y2="12.1335" stroke="#CCCCCC" stroke-linecap="round"/>
<line x1="16.0147" y1="32.9873" x2="25.3353" y2="8.3121" stroke="#CCCCCC" stroke-linecap="round"/>
<line x1="26.8867" y1="40.8311" x2="37.4959" y2="12.7444" stroke="#CCCCCC" stroke-linecap="round"/>
<path d="M12.7519 35.5523C12.7519 35.5523 10.6262 41.1798 17.6705 43.8407C24.7147 46.5015 26.8404 40.8739 26.8404 40.8739" stroke="#CCCCCC" stroke-linecap="round"/>
<path d="M23.3759 7.4265C23.3759 7.4265 24.9305 3.31088 30.9799 5.59594C37.0294 7.881 35.4748 11.9966 35.4748 11.9966" stroke="#CCCCCC" stroke-linecap="round"/>
<path d="M16.1102 32.7608C16.1102 32.7608 14.5556 36.8764 19.6105 38.7858C24.6653 40.6951 26.2199 36.5795 26.2199 36.5795" stroke="#CCCCCC" stroke-linecap="round"/>
</svg>
